<?xml version="1.0" encoding="utf-8"?>
<!-- Generator: Adobe Illustrator 28.1.0, SVG Export Plug-In . SVG Version: 6.00 Build 0)  -->
<svg version="1.1" xmlns="http://www.w3.org/2000/svg" xmlns:xlink="http://www.w3.org/1999/xlink" x="0px" y="0px"
	 viewBox="0 0 46.77 46.77" style="enable-background:new 0 0 46.77 46.77;" xml:space="preserve">
<g id="レイアウト">
</g>
<g id="囲み">
</g>
<g id="トンボ">
</g>
<g id="仕様">
</g>
<g id="名称">
	<text transform="matrix(1 0 0 1 -53.4424 -19.4033)" style="font-family:'HiraKakuPro-W3-83pv-RKSJ-H'; font-size:12px;">https://marmelot.jp/</text>
	<text transform="matrix(1 0 0 1 -121.4429 -40.7363)" style="font-family:'HiraKakuPro-W3-83pv-RKSJ-H'; font-size:12px;">marmelot.jp</text>
	<g>
		<rect x="5.67" y="5.67" width="1.42" height="1.42"/>
		<rect x="7.09" y="5.67" width="1.42" height="1.42"/>
		<rect x="8.5" y="5.67" width="1.42" height="1.42"/>
		<rect x="9.92" y="5.67" width="1.42" height="1.42"/>
		<rect x="11.34" y="5.67" width="1.42" height="1.42"/>
		<rect x="12.76" y="5.67" width="1.42" height="1.42"/>
		<rect x="14.17" y="5.67" width="1.42" height="1.42"/>
		<rect x="17.01" y="5.67" width="1.42" height="1.42"/>
		<rect x="18.42" y="5.67" width="1.42" height="1.42"/>
		<rect x="19.84" y="5.67" width="1.42" height="1.42"/>
		<rect x="22.68" y="5.67" width="1.42" height="1.42"/>
		<rect x="24.09" y="5.67" width="1.42" height="1.42"/>
		<rect x="28.35" y="5.67" width="1.42" height="1.42"/>
		<rect x="31.18" y="5.67" width="1.42" height="1.42"/>
		<rect x="32.6" y="5.67" width="1.42" height="1.42"/>
		<rect x="34.02" y="5.67" width="1.42" height="1.42"/>
		<rect x="35.43" y="5.67" width="1.42" height="1.42"/>
		<rect x="36.85" y="5.67" width="1.42" height="1.42"/>
		<rect x="38.27" y="5.67" width="1.42" height="1.42"/>
		<rect x="39.68" y="5.67" width="1.42" height="1.42"/>
		<rect x="5.67" y="7.09" width="1.42" height="1.42"/>
		<rect x="14.17" y="7.09" width="1.42" height="1.42"/>
		<rect x="17.01" y="7.09" width="1.42" height="1.42"/>
		<rect x="18.42" y="7.09" width="1.42" height="1.42"/>
		<rect x="19.84" y="7.09" width="1.42" height="1.42"/>
		<rect x="24.09" y="7.09" width="1.42" height="1.42"/>
		<rect x="25.51" y="7.09" width="1.42" height="1.42"/>
		<rect x="31.18" y="7.09" width="1.42" height="1.42"/>
		<rect x="39.68" y="7.09" width="1.42" height="1.42"/>
		<rect x="5.67" y="8.5" width="1.42" height="1.42"/>
		<rect x="8.5" y="8.5" width="1.42" height="1.42"/>
		<rect x="9.92" y="8.5" width="1.42" height="1.42"/>
		<rect x="11.34" y="8.5" width="1.42" height="1.42"/>
		<rect x="14.17" y="8.5" width="1.42" height="1.42"/>
		<rect x="21.26" y="8.5" width="1.42" height="1.42"/>
		<rect x="22.68" y="8.5" width="1.42" height="1.42"/>
		<rect x="24.09" y="8.5" width="1.42" height="1.42"/>
		<rect x="26.93" y="8.5" width="1.42" height="1.42"/>
		<rect x="31.18" y="8.5" width="1.42" height="1.42"/>
		<rect x="34.02" y="8.5" width="1.42" height="1.42"/>
		<rect x="35.43" y="8.5" width="1.42" height="1.42"/>
		<rect x="36.85" y="8.5" width="1.42" height="1.42"/>
		<rect x="39.68" y="8.5" width="1.42" height="1.42"/>
		<rect x="5.67" y="9.92" width="1.42" height="1.42"/>
		<rect x="8.5" y="9.92" width="1.42" height="1.42"/>
		<rect x="9.92" y="9.92" width="1.42" height="1.42"/>
		<rect x="11.34" y="9.92" width="1.42" height="1.42"/>
		<rect x="14.17" y="9.92" width="1.42" height="1.42"/>
		<rect x="17.01" y="9.92" width="1.42" height="1.42"/>
		<rect x="18.42" y="9.92" width="1.42" height="1.42"/>
		<rect x="19.84" y="9.92" width="1.42" height="1.42"/>
		<rect x="21.26" y="9.92" width="1.42" height="1.42"/>
		<rect x="22.68" y="9.92" width="1.42" height="1.42"/>
		<rect x="24.09" y="9.92" width="1.42" height="1.42"/>
		<rect x="25.51" y="9.92" width="1.42" height="1.42"/>
		<rect x="31.18" y="9.92" width="1.42" height="1.42"/>
		<rect x="34.02" y="9.92" width="1.42" height="1.42"/>
		<rect x="35.43" y="9.92" width="1.42" height="1.42"/>
		<rect x="36.85" y="9.92" width="1.42" height="1.42"/>
		<rect x="39.68" y="9.92" width="1.42" height="1.42"/>
		<rect x="5.67" y="11.34" width="1.42" height="1.42"/>
		<rect x="8.5" y="11.34" width="1.42" height="1.42"/>
		<rect x="9.92" y="11.34" width="1.42" height="1.42"/>
		<rect x="11.34" y="11.34" width="1.42" height="1.42"/>
		<rect x="14.17" y="11.34" width="1.42" height="1.42"/>
		<rect x="18.42" y="11.34" width="1.42" height="1.42"/>
		<rect x="19.84" y="11.34" width="1.42" height="1.42"/>
		<rect x="21.26" y="11.34" width="1.42" height="1.42"/>
		<rect x="26.93" y="11.34" width="1.42" height="1.42"/>
		<rect x="31.18" y="11.34" width="1.42" height="1.42"/>
		<rect x="34.02" y="11.34" width="1.42" height="1.42"/>
		<rect x="35.43" y="11.34" width="1.42" height="1.42"/>
		<rect x="36.85" y="11.34" width="1.42" height="1.42"/>
		<rect x="39.68" y="11.34" width="1.42" height="1.42"/>
		<rect x="5.67" y="12.76" width="1.42" height="1.42"/>
		<rect x="14.17" y="12.76" width="1.42" height="1.42"/>
		<rect x="18.42" y="12.76" width="1.42" height="1.42"/>
		<rect x="19.84" y="12.76" width="1.42" height="1.42"/>
		<rect x="22.68" y="12.76" width="1.42" height="1.42"/>
		<rect x="24.09" y="12.76" width="1.42" height="1.42"/>
		<rect x="28.35" y="12.76" width="1.42" height="1.42"/>
		<rect x="31.18" y="12.76" width="1.42" height="1.42"/>
		<rect x="39.68" y="12.76" width="1.42" height="1.42"/>
		<rect x="5.67" y="14.17" width="1.42" height="1.42"/>
		<rect x="7.09" y="14.17" width="1.42" height="1.42"/>
		<rect x="8.5" y="14.17" width="1.42" height="1.42"/>
		<rect x="9.92" y="14.17" width="1.42" height="1.42"/>
		<rect x="11.34" y="14.17" width="1.42" height="1.42"/>
		<rect x="12.76" y="14.17" width="1.42" height="1.42"/>
		<rect x="14.17" y="14.17" width="1.42" height="1.42"/>
		<rect x="17.01" y="14.17" width="1.42" height="1.42"/>
		<rect x="19.84" y="14.17" width="1.42" height="1.42"/>
		<rect x="22.68" y="14.17" width="1.42" height="1.42"/>
		<rect x="25.51" y="14.17" width="1.42" height="1.42"/>
		<rect x="28.35" y="14.17" width="1.42" height="1.42"/>
		<rect x="31.18" y="14.17" width="1.42" height="1.42"/>
		<rect x="32.6" y="14.17" width="1.42" height="1.42"/>
		<rect x="34.02" y="14.17" width="1.42" height="1.42"/>
		<rect x="35.43" y="14.17" width="1.42" height="1.42"/>
		<rect x="36.85" y="14.17" width="1.42" height="1.42"/>
		<rect x="38.27" y="14.17" width="1.42" height="1.42"/>
		<rect x="39.68" y="14.17" width="1.42" height="1.42"/>
		<rect x="17.01" y="15.59" width="1.42" height="1.42"/>
		<rect x="25.51" y="15.59" width="1.42" height="1.42"/>
		<rect x="28.35" y="15.59" width="1.42" height="1.42"/>
		<rect x="5.67" y="17.01" width="1.42" height="1.42"/>
		<rect x="8.5" y="17.01" width="1.42" height="1.42"/>
		<rect x="9.92" y="17.01" width="1.42" height="1.42"/>
		<rect x="12.76" y="17.01" width="1.42" height="1.42"/>
		<rect x="14.17" y="17.01" width="1.42" height="1.42"/>
		<rect x="15.59" y="17.01" width="1.42" height="1.42"/>
		<rect x="18.42" y="17.01" width="1.42" height="1.42"/>
		<rect x="21.26" y="17.01" width="1.42" height="1.42"/>
		<rect x="22.68" y="17.01" width="1.42" height="1.42"/>
		<rect x="31.18" y="17.01" width="1.42" height="1.42"/>
		<rect x="35.43" y="17.01" width="1.42" height="1.42"/>
		<rect x="38.27" y="17.01" width="1.42" height="1.42"/>
		<rect x="39.68" y="17.01" width="1.42" height="1.42"/>
		<rect x="5.67" y="18.43" width="1.42" height="1.42"/>
		<rect x="8.5" y="18.43" width="1.42" height="1.42"/>
		<rect x="11.34" y="18.43" width="1.42" height="1.42"/>
		<rect x="15.59" y="18.43" width="1.42" height="1.42"/>
		<rect x="17.01" y="18.43" width="1.42" height="1.42"/>
		<rect x="18.42" y="18.43" width="1.42" height="1.42"/>
		<rect x="19.84" y="18.43" width="1.42" height="1.42"/>
		<rect x="21.26" y="18.43" width="1.42" height="1.42"/>
		<rect x="24.09" y="18.43" width="1.42" height="1.42"/>
		<rect x="28.35" y="18.43" width="1.42" height="1.42"/>
		<rect x="32.6" y="18.43" width="1.42" height="1.42"/>
		<rect x="38.27" y="18.43" width="1.42" height="1.42"/>
		<rect x="5.67" y="19.84" width="1.42" height="1.42"/>
		<rect x="7.09" y="19.84" width="1.42" height="1.42"/>
		<rect x="14.17" y="19.84" width="1.42" height="1.42"/>
		<rect x="17.01" y="19.84" width="1.42" height="1.42"/>
		<rect x="18.42" y="19.84" width="1.42" height="1.42"/>
		<rect x="19.84" y="19.84" width="1.42" height="1.42"/>
		<rect x="21.26" y="19.84" width="1.42" height="1.42"/>
		<rect x="24.09" y="19.84" width="1.42" height="1.42"/>
		<rect x="28.35" y="19.84" width="1.42" height="1.42"/>
		<rect x="29.76" y="19.84" width="1.42" height="1.42"/>
		<rect x="32.6" y="19.84" width="1.42" height="1.42"/>
		<rect x="34.02" y="19.84" width="1.42" height="1.42"/>
		<rect x="9.92" y="21.26" width="1.42" height="1.42"/>
		<rect x="12.76" y="21.26" width="1.42" height="1.42"/>
		<rect x="17.01" y="21.26" width="1.42" height="1.42"/>
		<rect x="18.42" y="21.26" width="1.42" height="1.42"/>
		<rect x="19.84" y="21.26" width="1.42" height="1.42"/>
		<rect x="21.26" y="21.26" width="1.42" height="1.42"/>
		<rect x="22.68" y="21.26" width="1.42" height="1.42"/>
		<rect x="24.09" y="21.26" width="1.42" height="1.42"/>
		<rect x="25.51" y="21.26" width="1.42" height="1.42"/>
		<rect x="26.93" y="21.26" width="1.42" height="1.42"/>
		<rect x="29.76" y="21.26" width="1.42" height="1.42"/>
		<rect x="34.02" y="21.26" width="1.42" height="1.42"/>
		<rect x="35.43" y="21.26" width="1.42" height="1.42"/>
		<rect x="36.85" y="21.26" width="1.42" height="1.42"/>
		<rect x="5.67" y="22.68" width="1.42" height="1.42"/>
		<rect x="8.5" y="22.68" width="1.42" height="1.42"/>
		<rect x="12.76" y="22.68" width="1.42" height="1.42"/>
		<rect x="14.17" y="22.68" width="1.42" height="1.42"/>
		<rect x="15.59" y="22.68" width="1.42" height="1.42"/>
		<rect x="29.76" y="22.68" width="1.42" height="1.42"/>
		<rect x="31.18" y="22.68" width="1.42" height="1.42"/>
		<rect x="34.02" y="22.68" width="1.42" height="1.42"/>
		<rect x="36.85" y="22.68" width="1.42" height="1.42"/>
		<rect x="38.27" y="22.68" width="1.42" height="1.42"/>
		<rect x="39.68" y="22.68" width="1.42" height="1.42"/>
		<rect x="8.5" y="24.09" width="1.42" height="1.42"/>
		<rect x="9.92" y="24.09" width="1.42" height="1.42"/>
		<rect x="11.34" y="24.09" width="1.42" height="1.42"/>
		<rect x="18.42" y="24.09" width="1.42" height="1.42"/>
		<rect x="19.84" y="24.09" width="1.42" height="1.42"/>
		<rect x="21.26" y="24.09" width="1.42" height="1.42"/>
		<rect x="24.09" y="24.09" width="1.42" height="1.42"/>
		<rect x="25.51" y="24.09" width="1.42" height="1.42"/>
		<rect x="26.93" y="24.09" width="1.42" height="1.42"/>
		<rect x="28.35" y="24.09" width="1.42" height="1.42"/>
		<rect x="31.18" y="24.09" width="1.42" height="1.42"/>
		<rect x="32.6" y="24.09" width="1.42" height="1.42"/>
		<rect x="34.02" y="24.09" width="1.42" height="1.42"/>
		<rect x="39.68" y="24.09" width="1.42" height="1.42"/>
		<rect x="7.09" y="25.51" width="1.42" height="1.42"/>
		<rect x="9.92" y="25.51" width="1.42" height="1.42"/>
		<rect x="11.34" y="25.51" width="1.42" height="1.42"/>
		<rect x="12.76" y="25.51" width="1.42" height="1.42"/>
		<rect x="14.17" y="25.51" width="1.42" height="1.42"/>
		<rect x="19.84" y="25.51" width="1.42" height="1.42"/>
		<rect x="22.68" y="25.51" width="1.42" height="1.42"/>
		<rect x="25.51" y="25.51" width="1.42" height="1.42"/>
		<rect x="28.35" y="25.51" width="1.42" height="1.42"/>
		<rect x="34.02" y="25.51" width="1.42" height="1.42"/>
		<rect x="36.85" y="25.51" width="1.42" height="1.42"/>
		<rect x="38.27" y="25.51" width="1.42" height="1.42"/>
		<rect x="5.67" y="26.93" width="1.42" height="1.42"/>
		<rect x="11.34" y="26.93" width="1.42" height="1.42"/>
		<rect x="12.76" y="26.93" width="1.42" height="1.42"/>
		<rect x="18.42" y="26.93" width="1.42" height="1.42"/>
		<rect x="22.68" y="26.93" width="1.42" height="1.42"/>
		<rect x="24.09" y="26.93" width="1.42" height="1.42"/>
		<rect x="26.93" y="26.93" width="1.42" height="1.42"/>
		<rect x="28.35" y="26.93" width="1.42" height="1.42"/>
		<rect x="32.6" y="26.93" width="1.42" height="1.42"/>
		<rect x="34.02" y="26.93" width="1.42" height="1.42"/>
		<rect x="39.68" y="26.93" width="1.42" height="1.42"/>
		<rect x="8.5" y="28.35" width="1.42" height="1.42"/>
		<rect x="9.92" y="28.35" width="1.42" height="1.42"/>
		<rect x="11.34" y="28.35" width="1.42" height="1.42"/>
		<rect x="14.17" y="28.35" width="1.42" height="1.42"/>
		<rect x="17.01" y="28.35" width="1.42" height="1.42"/>
		<rect x="21.26" y="28.35" width="1.42" height="1.42"/>
		<rect x="26.93" y="28.35" width="1.42" height="1.42"/>
		<rect x="28.35" y="28.35" width="1.42" height="1.42"/>
		<rect x="29.76" y="28.35" width="1.42" height="1.42"/>
		<rect x="31.18" y="28.35" width="1.42" height="1.42"/>
		<rect x="32.6" y="28.35" width="1.42" height="1.42"/>
		<rect x="34.02" y="28.35" width="1.42" height="1.42"/>
		<rect x="35.43" y="28.35" width="1.42" height="1.42"/>
		<rect x="36.85" y="28.35" width="1.42" height="1.42"/>
		<rect x="38.27" y="28.35" width="1.42" height="1.42"/>
		<rect x="39.68" y="28.35" width="1.42" height="1.42"/>
		<rect x="17.01" y="29.76" width="1.42" height="1.42"/>
		<rect x="22.68" y="29.76" width="1.42" height="1.42"/>
		<rect x="24.09" y="29.76" width="1.42" height="1.42"/>
		<rect x="28.35" y="29.76" width="1.42" height="1.42"/>
		<rect x="34.02" y="29.76" width="1.42" height="1.42"/>
		<rect x="36.85" y="29.76" width="1.42" height="1.42"/>
		<rect x="39.68" y="29.76" width="1.42" height="1.42"/>
		<rect x="5.67" y="31.18" width="1.42" height="1.42"/>
		<rect x="7.09" y="31.18" width="1.42" height="1.42"/>
		<rect x="8.5" y="31.18" width="1.42" height="1.42"/>
		<rect x="9.92" y="31.18" width="1.42" height="1.42"/>
		<rect x="11.34" y="31.18" width="1.42" height="1.42"/>
		<rect x="12.76" y="31.18" width="1.42" height="1.42"/>
		<rect x="14.17" y="31.18" width="1.42" height="1.42"/>
		<rect x="17.01" y="31.18" width="1.42" height="1.42"/>
		<rect x="19.84" y="31.18" width="1.42" height="1.42"/>
		<rect x="21.26" y="31.18" width="1.42" height="1.42"/>
		<rect x="22.68" y="31.18" width="1.42" height="1.42"/>
		<rect x="28.35" y="31.18" width="1.42" height="1.42"/>
		<rect x="31.18" y="31.18" width="1.42" height="1.42"/>
		<rect x="34.02" y="31.18" width="1.42" height="1.42"/>
		<rect x="36.85" y="31.18" width="1.42" height="1.42"/>
		<rect x="38.27" y="31.18" width="1.42" height="1.42"/>
		<rect x="39.68" y="31.18" width="1.42" height="1.42"/>
		<rect x="5.67" y="32.6" width="1.42" height="1.42"/>
		<rect x="14.17" y="32.6" width="1.42" height="1.42"/>
		<rect x="17.01" y="32.6" width="1.42" height="1.42"/>
		<rect x="18.42" y="32.6" width="1.42" height="1.42"/>
		<rect x="19.84" y="32.6" width="1.42" height="1.42"/>
		<rect x="22.68" y="32.6" width="1.42" height="1.42"/>
		<rect x="26.93" y="32.6" width="1.42" height="1.42"/>
		<rect x="28.35" y="32.6" width="1.42" height="1.42"/>
		<rect x="34.02" y="32.6" width="1.42" height="1.42"/>
		<rect x="38.27" y="32.6" width="1.42" height="1.42"/>
		<rect x="5.67" y="34.02" width="1.42" height="1.42"/>
		<rect x="8.5" y="34.02" width="1.42" height="1.42"/>
		<rect x="9.92" y="34.02" width="1.42" height="1.42"/>
		<rect x="11.34" y="34.02" width="1.42" height="1.42"/>
		<rect x="14.17" y="34.02" width="1.42" height="1.42"/>
		<rect x="19.84" y="34.02" width="1.42" height="1.42"/>
		<rect x="21.26" y="34.02" width="1.42" height="1.42"/>
		<rect x="22.68" y="34.02" width="1.42" height="1.42"/>
		<rect x="24.09" y="34.02" width="1.42" height="1.42"/>
		<rect x="28.35" y="34.02" width="1.42" height="1.42"/>
		<rect x="29.76" y="34.02" width="1.42" height="1.42"/>
		<rect x="31.18" y="34.02" width="1.42" height="1.42"/>
		<rect x="32.6" y="34.02" width="1.42" height="1.42"/>
		<rect x="34.02" y="34.02" width="1.42" height="1.42"/>
		<rect x="35.43" y="34.02" width="1.42" height="1.42"/>
		<rect x="38.27" y="34.02" width="1.42" height="1.42"/>
		<rect x="5.67" y="35.43" width="1.42" height="1.42"/>
		<rect x="8.5" y="35.43" width="1.42" height="1.42"/>
		<rect x="9.92" y="35.43" width="1.42" height="1.42"/>
		<rect x="11.34" y="35.43" width="1.42" height="1.42"/>
		<rect x="14.17" y="35.43" width="1.42" height="1.42"/>
		<rect x="17.01" y="35.43" width="1.42" height="1.42"/>
		<rect x="18.42" y="35.43" width="1.42" height="1.42"/>
		<rect x="19.84" y="35.43" width="1.42" height="1.42"/>
		<rect x="22.68" y="35.43" width="1.42" height="1.42"/>
		<rect x="24.09" y="35.43" width="1.42" height="1.42"/>
		<rect x="25.51" y="35.43" width="1.42" height="1.42"/>
		<rect x="29.76" y="35.43" width="1.42" height="1.42"/>
		<rect x="31.18" y="35.43" width="1.42" height="1.42"/>
		<rect x="34.02" y="35.43" width="1.42" height="1.42"/>
		<rect x="35.43" y="35.43" width="1.42" height="1.42"/>
		<rect x="36.85" y="35.43" width="1.42" height="1.42"/>
		<rect x="38.27" y="35.43" width="1.42" height="1.42"/>
		<rect x="39.68" y="35.43" width="1.42" height="1.42"/>
		<rect x="5.67" y="36.85" width="1.42" height="1.42"/>
		<rect x="8.5" y="36.85" width="1.42" height="1.42"/>
		<rect x="9.92" y="36.85" width="1.42" height="1.42"/>
		<rect x="11.34" y="36.85" width="1.42" height="1.42"/>
		<rect x="14.17" y="36.85" width="1.42" height="1.42"/>
		<rect x="17.01" y="36.85" width="1.42" height="1.42"/>
		<rect x="18.42" y="36.85" width="1.42" height="1.42"/>
		<rect x="21.26" y="36.85" width="1.42" height="1.42"/>
		<rect x="22.68" y="36.85" width="1.42" height="1.42"/>
		<rect x="24.09" y="36.85" width="1.42" height="1.42"/>
		<rect x="26.93" y="36.85" width="1.42" height="1.42"/>
		<rect x="29.76" y="36.85" width="1.42" height="1.42"/>
		<rect x="31.18" y="36.85" width="1.42" height="1.42"/>
		<rect x="34.02" y="36.85" width="1.42" height="1.42"/>
		<rect x="36.85" y="36.85" width="1.42" height="1.42"/>
		<rect x="38.27" y="36.85" width="1.42" height="1.42"/>
		<rect x="5.67" y="38.27" width="1.42" height="1.42"/>
		<rect x="14.17" y="38.27" width="1.42" height="1.42"/>
		<rect x="29.76" y="38.27" width="1.42" height="1.42"/>
		<rect x="31.18" y="38.27" width="1.42" height="1.42"/>
		<rect x="34.02" y="38.27" width="1.42" height="1.42"/>
		<rect x="36.85" y="38.27" width="1.42" height="1.42"/>
		<rect x="5.67" y="39.69" width="1.42" height="1.42"/>
		<rect x="7.09" y="39.69" width="1.42" height="1.42"/>
		<rect x="8.5" y="39.69" width="1.42" height="1.42"/>
		<rect x="9.92" y="39.69" width="1.42" height="1.42"/>
		<rect x="11.34" y="39.69" width="1.42" height="1.42"/>
		<rect x="12.76" y="39.69" width="1.42" height="1.42"/>
		<rect x="14.17" y="39.69" width="1.42" height="1.42"/>
		<rect x="17.01" y="39.69" width="1.42" height="1.42"/>
		<rect x="18.42" y="39.69" width="1.42" height="1.42"/>
		<rect x="19.84" y="39.69" width="1.42" height="1.42"/>
		<rect x="22.68" y="39.69" width="1.42" height="1.42"/>
		<rect x="25.51" y="39.69" width="1.42" height="1.42"/>
		<rect x="29.76" y="39.69" width="1.42" height="1.42"/>
		<rect x="31.18" y="39.69" width="1.42" height="1.42"/>
		<rect x="32.6" y="39.69" width="1.42" height="1.42"/>
		<rect x="34.02" y="39.69" width="1.42" height="1.42"/>
		<rect x="35.43" y="39.69" width="1.42" height="1.42"/>
		<rect x="36.85" y="39.69" width="1.42" height="1.42"/>
		<rect x="38.27" y="39.69" width="1.42" height="1.42"/>
		<rect x="39.68" y="39.69" width="1.42" height="1.42"/>
	</g>
</g>
</svg>
